<?xml version="1.0" encoding="UTF-8" standalone="no"?>
<!-- Created with Inkscape (http://www.inkscape.org/) -->

<svg
   width="512"
   height="512"
   viewBox="0 0 512 512"
   version="1.1"
   id="svg1"
   inkscape:version="1.3.2 (091e20e, 2023-11-25, custom)"
   sodipodi:docname="Anon.svg"
   inkscape:export-filename="Anon.png"
   inkscape:export-xdpi="300"
   inkscape:export-ydpi="300"
   xmlns:inkscape="http://www.inkscape.org/namespaces/inkscape"
   xmlns:sodipodi="http://sodipodi.sourceforge.net/DTD/sodipodi-0.dtd"
   xmlns="http://www.w3.org/2000/svg"
   xmlns:svg="http://www.w3.org/2000/svg">
  <sodipodi:namedview
     id="namedview1"
     pagecolor="#ffffff"
     bordercolor="#666666"
     borderopacity="1.0"
     inkscape:showpageshadow="2"
     inkscape:pageopacity="0.0"
     inkscape:pagecheckerboard="0"
     inkscape:deskcolor="#d1d1d1"
     inkscape:document-units="px"
     inkscape:zoom="1.1338568"
     inkscape:cx="275.608"
     inkscape:cy="253.55936"
     inkscape:window-width="1920"
     inkscape:window-height="1017"
     inkscape:window-x="-8"
     inkscape:window-y="-8"
     inkscape:window-maximized="1"
     inkscape:current-layer="g6" />
  <defs
     id="defs1" />
  <g
     inkscape:label="Capa 1"
     inkscape:groupmode="layer"
     id="layer1">
    <g
       id="g6"
       transform="matrix(0.51849444,0,0,0.51849444,131.18746,-1.6789933)">
      <g
         id="g14"
         transform="matrix(1.2140502,0,0,1.2140502,-12.564858,-102.2897)">
        <path
           style="fill:#333333;fill-opacity:1;stroke:#000000;stroke-width:3;stroke-linecap:butt;stroke-linejoin:miter;stroke-dasharray:none;stroke-opacity:1"
           d="m 219.51766,165.80755 c -40.22412,3.42996 -69.58691,20.28297 -69.58691,20.28297 11.84896,47.70767 13.22919,124.35433 13.22919,124.35433 -2.49452,25.88063 -2.64584,45.86118 -2.64584,45.86118 l 169.33356,4.40972 c 0,0 -1.91521,-41.17476 -4.40973,-51.15284 0,0 12.22189,-93.22635 24.69448,-123.47239 0,0 -35.00821,-18.87375 -59.64158,-21.05645 z"
           id="path7"
           sodipodi:nodetypes="ccccccccc"
           transform="matrix(1.928661,0,0,1.928661,-253.01614,3.2382089)" />
        <ellipse
           style="fill:#f9f9f9;stroke:#000000;stroke-width:6.10591;stroke-linecap:round;stroke-linejoin:round;stroke-dasharray:none;stroke-opacity:1"
           id="path4"
           cx="238.5428"
           cy="204.29561"
           rx="91.081161"
           ry="104.70089" />
        <path
           style="fill:#333333;fill-opacity:1;stroke:none;stroke-width:1.92866px;stroke-linecap:butt;stroke-linejoin:miter;stroke-opacity:1"
           d="m 163.88037,263.45332 c 0,0 -8.55861,-16.49139 -11.74794,-26.05937 0,0 -4.80756,-19.6689 -4.38232,-24.77182 l 181.6513,-1.01175 c -1.70097,34.2321 -14.6492,48.20574 -14.6492,48.20574 0,0 -61.94117,12.38862 -62.79167,12.60124 -0.85048,0.21263 -88.08017,-8.96404 -88.08017,-8.96404"
           id="path8"
           sodipodi:nodetypes="cccccsc" />
        <path
           style="fill:#4d4d4d;stroke:#000000;stroke-width:5;stroke-linecap:butt;stroke-linejoin:miter;stroke-dasharray:none;stroke-opacity:1"
           d="m 138.82056,190.70186 c 0,0 14.15,-62.09561 21.94537,-68.64372 14.96711,-22.76249 33.13294,-24.634489 33.13294,-24.634489 16.83801,-2.182704 37.62863,-7.178232 37.62863,-7.178232 23.69793,-3.429964 45.00945,5.00202 45.00945,5.00202 8.73082,3.741778 22.88358,8.381171 22.88358,8.381171 7.79537,2.80633 18.40737,20.01994 18.40737,20.01994 6.2363,4.67722 24.9713,69.88959 24.9713,69.88959 -7.17174,39.9123 -162.81908,79.48284 -203.97864,-2.83628 z"
           id="path3"
           sodipodi:nodetypes="ccccccccc" />
        <path
           style="fill:#333333;fill-opacity:1;stroke:#000000;stroke-width:6.86627;stroke-linecap:butt;stroke-linejoin:miter;stroke-dasharray:none;stroke-opacity:1"
           d="m 163.88037,263.45332 c 0,0 18.8325,15.97612 22.92075,29.71123 0,0 2.33615,5.23241 2.62817,12.42697 8.46858,-2.39817 19.8573,-14.82517 19.8573,-14.82517 0,0 6.71644,12.42699 11.68078,13.29905 5.54837,-8.06663 24.23758,-14.17112 24.23758,-14.17112 4.08828,0.87208 16.64511,14.17112 16.64511,14.17112 5.25634,-1.96215 19.85728,-18.31344 19.85728,-18.31344 0,0 7.00845,8.72069 11.97278,7.84862 -1.75211,-7.19457 23.77126,-37.01465 23.77126,-37.01465"
           id="path5"
           sodipodi:nodetypes="cccccccccc" />
        <path
           style="fill:none;stroke:#000000;stroke-width:40;stroke-linecap:round;stroke-linejoin:round;stroke-dasharray:none;stroke-opacity:1"
           d="m 181.65895,307.76127 c 49.26675,31.18149 115.3715,0 115.3715,0"
           id="path6"
           sodipodi:nodetypes="cc" />
        <path
           id="rect8"
           style="fill:#00aad4;fill-opacity:1;stroke:#000000;stroke-width:7.71464;stroke-linecap:round;stroke-linejoin:round;stroke-dasharray:none;stroke-opacity:1"
           d="m 114.49971,612.78249 c -23.558436,0 -42.52472,18.96626 -42.52472,42.52471 v 8.44919 c 0,2.08667 0.148651,4.13652 0.436962,6.14008 H -39.623663 v 113.4256 H 475.23466 V 669.89647 H 363.20281 c 0.28835,-2.00381 0.43696,-4.05318 0.43696,-6.14008 v -8.44919 c 0,-23.55845 -18.96627,-42.52471 -42.52472,-42.52471 z m 5.4658,22.39808 h 195.67998 c 13.49152,0 24.35311,10.86159 24.35311,24.35311 v 10.36279 H 95.612386 v -10.36279 c 0,-13.49152 10.861594,-24.35311 24.353124,-24.35311 z" />
        <rect
           style="fill:#808080;fill-opacity:1;stroke:#000000;stroke-width:7.71464;stroke-linecap:round;stroke-linejoin:round;stroke-dasharray:none;stroke-opacity:1"
           id="rect10"
           width="20.41169"
           height="113.11478"
           x="416.24976"
           y="783.32208" />
        <rect
           style="fill:#808080;fill-opacity:1;stroke:#000000;stroke-width:7.71464;stroke-linecap:round;stroke-linejoin:round;stroke-dasharray:none;stroke-opacity:1"
           id="rect11"
           width="20.41169"
           height="113.11478"
           x="-1.0504451"
           y="783.32208" />
        <path
           style="fill:#333333;fill-opacity:1;stroke:#000000;stroke-width:7.71464;stroke-linecap:butt;stroke-linejoin:miter;stroke-dasharray:none;stroke-opacity:1"
           d="m 36.14945,362.14374 c -13.230473,2.40554 -156.86086,89.7278 -156.86086,89.7278 -40.89419,28.2651 -25.25817,74.57176 -25.25817,74.57176 4.81108,20.4471 75.173144,107.04655 75.173144,107.04655 30.069258,-1.80416 61.341289,-28.86648 61.341289,-28.86648 -3.006926,-22.25125 -46.908044,-101.03272 -46.908044,-101.03272 0,0 78.140225,-24.10993 108.810868,-42.75287 C 51.244907,419.94359 36.14945,362.14374 36.14945,362.14374 Z"
           id="path11"
           sodipodi:nodetypes="cccccccc" />
        <path
           style="fill:#333333;fill-opacity:1;stroke:#000000;stroke-width:7.71464;stroke-linecap:butt;stroke-linejoin:miter;stroke-dasharray:none;stroke-opacity:1"
           d="m 422.27058,362.14374 c 0,0 110.1223,87.92365 128.76524,113.18183 24.05541,21.04848 12.02771,59.53713 12.02771,59.53713 -0.60139,13.83186 -49.91498,113.66178 -49.91498,113.66178 -17.44017,3.60831 -61.34127,-27.06232 -61.34127,-27.06232 0,0 26.46094,-89.00501 39.69141,-102.23548 -42.09696,-8.41939 -94.39266,-58.5836 -94.39266,-58.5836 3.00693,-39.69142 25.16455,-98.49934 25.16455,-98.49934 z"
           id="path12"
           sodipodi:nodetypes="cccccccc" />
        <path
           style="fill:#f9f9f9;stroke:#000000;stroke-width:7.71464;stroke-linecap:butt;stroke-linejoin:miter;stroke-dasharray:none;stroke-opacity:1"
           d="m -60.149384,631.88073 c -6.765583,13.68151 -8.560168,39.56026 -8.560168,39.56026 1.20277,20.44709 6.627755,47.90731 6.627755,47.90731 9.32147,4.51039 22.458134,2.00167 22.458134,2.00167 l -4e-6,-51.4535 h 38.3516936 c 1.3531166,-16.68844 -11.2169686,-53.60085 -15.4266646,-59.6147 -11.727011,11.12563 -43.450746,21.59896 -43.450746,21.59896 z"
           id="path13"
           sodipodi:nodetypes="cccccccc" />
        <path
           style="fill:#f2f2f2;stroke:#000000;stroke-width:7.71464;stroke-linecap:butt;stroke-linejoin:miter;stroke-dasharray:none;stroke-opacity:1"
           d="m 458.92637,626.18973 c -11.12563,13.83186 -15.53849,43.70674 -15.53849,43.70674 h 31.84678 v 56.7128 c 0,0 12.95641,1.59874 31.29866,-5.31719 0,0 6.01385,-30.67063 5.41246,-42.99903 0,0 3.00693,-21.95056 1.20277,-29.76857 z"
           id="path14"
           sodipodi:nodetypes="cccccccc" />
        <path
           style="fill:none;stroke:#000000;stroke-width:38.5732;stroke-linecap:round;stroke-linejoin:round;stroke-dasharray:none;stroke-opacity:1"
           d="m 136.18415,208.4683 c 54.08349,61.60366 172.24645,49.74255 211.13311,4.49571"
           id="path2"
           sodipodi:nodetypes="cc" />
      </g>
    </g>
  </g>
</svg>
